:SAMPLES-PER-SECOND 30
:FULLY-SPECIFIED
:DEGREES
799
root  -28.3841 39.7635 11.7763 -5.15599 59.2243 -1.80084
RightUpLeg  1.00233 -10.6554 -2.75115
RightLeg  14.8321 -0.827048 1.88222
RightFoot  -10.9624 -0.0754348 0.338377
RightToes  2.96859e-009 0 -3.6325e-017
Spine  6.40422 -1.615 12.1525
Spine1  8.95031 -0.384783 -0.854602
HEad  -14.4283 -1.51858 -5.31668
LeftShoulder1  0.299691 2.67983 -30.2741
LeftArm  -1.32013 20.7186 -36.7541
LeftForeArm  12.7038 -19.3715 -4.70893
LeftHand  -0.0616998 2.86183 2.18007
RightShoulder  -0.502703 -5.01616 26.4148
RightArm  22.7613 0.441577 46.11
RightForeArm  -8.67847 23.6345 5.48024
RightHand  -0.923958 3.99685 -11.6711
LeftUpLeg  -16.8622 7.56968 1.5658
LeftLeg  45.2047 -5.73644 -5.78653
LeftFoot  -0.77891 0.313728 -3.33899
LeftToes  3.24686e-010 -7.02549e-012 1.39809e-011
800
root  -27.5125 39.8277 12.2345 -4.10612 60.3755 -0.992813
RightUpLeg  3.34341 -10.7684 -3.54955
RightLeg  12.9841 -1.49727 1.7444
RightFoot  -11.4432 -0.0769264 0.843183
RightToes  2.96859e-009 0 -3.6325e-017
Spine  6.16295 -1.51025 11.5134
Spine1  8.94195 -0.45921 -1.16264
HEad  -14.1295 -0.0160526 -5.68656
LeftShoulder1  0.219959 2.90805 -30.7969
LeftArm  -0.59775 21.1674 -38.3437
LeftForeArm  16.0763 -19.3873 -4.65098
LeftHand  -0.0298714 3.121 0.74943
RightShoulder  -0.494164 -4.99793 26.2422
RightArm  21.5589 0.838517 46.2183
RightForeArm  -5.99545 25.7616 5.83026
RightHand  -0.825333 4.34635 -10.0916
LeftUpLeg  -17.6994 8.81576 0.532795
LeftLeg  35.8598 -5.99215 -4.30874
LeftFoot  -1.31947 0.269494 -2.98717
LeftToes  3.24686e-010 -7.02549e-012 1.39809e-011
801
root  -26.6237 39.8931 12.6925 -3.0815 61.4543 -0.155472
RightUpLeg  6.07891 -10.787 -4.3234
RightLeg  10.4493 -2.16529 1.74662
RightFoot  -11.6218 -0.0747527 1.56617
RightToes  2.96859e-009 0 -3.6325e-017
Spine  5.97587 -1.22732 10.6861
Spine1  8.94808 -0.308487 -1.57221
HEad  -13.8052 0.668236 -5.9146
LeftShoulder1  0.211047 2.93916 -31.2623
LeftArm  0.670438 21.2724 -39.6347
LeftForeArm  19.3828 -18.9638 -4.78214
LeftHand  0.00670948 2.6621 -0.98348
RightShoulder  -0.531371 -5.11406 26.208
RightArm  21.0912 0.965102 46.074
RightForeArm  -5.32496 27.2278 6.14272
RightHand  -0.810876 4.18398 -10.0755
LeftUpLeg  -17.3893 10.986 -0.667454
LeftLeg  24.4839 -5.82185 -2.41597
LeftFoot  -1.10524 0.30298 -3.29745
LeftToes  3.24686e-010 -7.02549e-012 1.39809e-011
802
root  -25.7025 39.9029 13.1219 -2.23286 62.2712 0.328018
RightUpLeg  8.50867 -10.5172 -4.70336
RightLeg  8.18388 -3.09569 1.55106
RightFoot  -11.8732 -0.070598 2.20252
RightToes  2.96859e-009 0 -3.6325e-017
Spine  5.50105 -0.973192 9.89388
Spine1  9.32652 -0.160825 -1.88991
HEad  -13.4498 2.21574 -6.40199
LeftShoulder1  0.206282 2.95778 -31.6786
LeftArm  1.69156 21.5124 -40.8258
LeftForeArm  22.0368 -18.5265 -4.9847
LeftHand  0.0496382 2.53672 -2.57872
RightShoulder  -0.533263 -5.12461 26.1069
RightArm  20.9455 1.0716 46.2469
RightForeArm  -5.15947 27.7364 6.25641
RightHand  -0.897505 4.60493 -10.6851
LeftUpLeg  -16.4229 10.9965 -1.14841
LeftLeg  12.1989 -3.09024 -1.35621
LeftFoot  -0.529753 0.265656 -2.69458
LeftToes  3.24686e-010 -7.02549e-012 1.39809e-011
803
root  -24.7227 39.8565 13.5342 -1.86253 63.015 0.318298
RightUpLeg  11.0596 -10.4028 -5.06536
RightLeg  6.00421 -3.63189 1.70225
RightFoot  -12.1133 -0.0644555 2.56965
RightToes  2.96859e-009 0 -3.6325e-017
Spine  4.73366 -0.791784 9.22613
Spine1  10.0835 0.00675335 -2.34118
HEad  -13.3704 3.76924 -6.54848
LeftShoulder1  0.164861 3.06926 -31.8196
LeftArm  2.54943 21.7572 -41.8352
LeftForeArm  23.9994 -17.839 -5.34804
LeftHand  0.102551 1.85955 -3.792
RightShoulder  -0.465682 -4.91997 26.0183
RightArm  21.1734 0.800263 46.2443
RightForeArm  -5.0539 27.6506 6.23176
RightHand  -0.852401 4.21022 -10.5565
LeftUpLeg  -14.8534 4.10801 0.628962
LeftLeg  0.708996 7.32087 -1.92026
LeftFoot  -0.809571 0.289508 -3.09696
LeftToes  3.24686e-010 -7.02549e-012 1.39809e-011
804
root  -23.6574 39.6744 13.9391 -2.4099 63.8114 -0.105225
RightUpLeg  13.7015 -10.4229 -5.49404
RightLeg  5.27848 -3.78961 1.8415
RightFoot  -13.2627 -0.0312915 3.49204
RightToes  2.96859e-009 0 -3.6325e-017
Spine  4.48852 -0.881282 8.4434
Spine1  10.8397 -0.0582222 -2.54475
HEad  -13.0713 6.10226 -6.25118
LeftShoulder1  0.138099 3.13807 -31.6464
LeftArm  2.93659 22.2423 -42.7457
LeftForeArm  24.4437 -17.3111 -5.68314
LeftHand  0.0876797 2.4161 -4.07721
RightShoulder  -0.495033 -5.00401 26.1691
RightArm  22.8634 1.30612 46.6116
RightForeArm  -6.19207 26.0127 5.89913
RightHand  -0.818312 4.41284 -9.94804
LeftUpLeg  -14.1283 3.67428 0.35972
LeftLeg  -5.65251 10.6753 -2.01517
LeftFoot  -1.68609 0.316433 -3.61241
LeftToes  3.24686e-010 -7.02549e-012 1.39809e-011
